<?xml version="1.0" encoding="utf-8" ?><svg xmlns="http://www.w3.org/2000/svg" xmlns:xlink="http://www.w3.org/1999/xlink" width="1181" height="1181" viewBox="0 0 1181 1181"><path fill="#FCEB9B" d="M382.815 911.691L383.866 910.721C387.583 911.609 391.081 908.642 394.454 913.614C394.886 916.832 392.837 918.906 390.087 920.235C387.972 920.279 386.897 919.117 385.154 917.769C383.21 918.559 382.694 919.378 380.579 920.146L378.832 920.841C378.579 922.879 379.044 922.172 377.942 923.475C376.216 922.834 376.328 922.78 375.034 921.42C371.444 916.684 370.584 911.909 377.574 910.009C379.341 910.677 380.971 911.437 382.815 911.691Z"/><path fill="#FEFDEC" d="M382.815 911.691L383.866 910.721C387.583 911.609 391.081 908.642 394.454 913.614C394.886 916.832 392.837 918.906 390.087 920.235C387.972 920.279 386.897 919.117 385.154 917.769C383.21 918.559 382.694 919.378 380.579 920.146L380.373 919.423C382.013 917.312 383.438 914.404 382.815 911.691Z"/><path fill="#F3D252" d="M375.034 921.42C371.444 916.684 370.584 911.909 377.574 910.009C378.069 915.479 377.433 916.637 375.034 921.42Z"/><path fill="#DFAC16" d="M484.193 799.032C486.962 796.124 488.03 795.766 491.609 794.012L491.877 793.313C492.806 790.954 493.964 788.055 496.258 786.729C499.502 786.872 498.906 789.655 498.243 791.8C499.278 792.356 499.339 792.248 500.533 792.504L500.67 793.201C498.526 796.252 498.606 795.888 494.781 796.091C495.631 799.086 496.028 800.058 495.368 803.106C492.034 804.738 483.868 808.514 482.156 803.144C482.912 800.935 482.873 800.923 484.193 799.032Z"/><path fill="#D39809" d="M495.368 803.106C492.034 804.738 483.868 808.514 482.156 803.144C482.912 800.935 482.873 800.923 484.193 799.032C486.293 800.863 488.18 801.96 490.377 803.62L491.341 803.369C491.198 801.809 490.524 801.117 489.635 799.82C491.76 801.45 493.905 801.826 495.368 803.106Z"/><path fill="#FCEB9B" d="M544.558 469.496C545.506 467.307 544.788 468.116 546.641 466.858C550.353 466.788 551.414 468.826 551.406 472.278C548.9 473.533 548.581 473.545 546.723 475.462L546.037 476.157L545.559 476.659C543.432 475.928 543.174 475.846 540.961 475.534C541.32 476.928 543.326 477.368 544.938 479.401C543.536 480.562 541.236 480.385 538.905 480.824L538.883 481.469C539.75 482.03 540.155 482.263 541.101 482.748L541.943 483.172C542.318 485.011 542.271 484.882 541.573 486.646C540.216 487.607 540.034 487.754 538.26 487.562C532.942 486.989 534.737 478.633 535.879 475.599C538.204 470.082 539.521 471.39 544.47 471.062L544.558 469.496Z"/><path fill="#F3D252" d="M544.558 469.496C545.506 467.307 544.788 468.116 546.641 466.858C550.353 466.788 551.414 468.826 551.406 472.278C548.9 473.533 548.581 473.545 546.723 475.462L546.037 476.157L545.559 476.659C545.251 474.412 545.647 474.68 544.388 473.306C541.384 472.576 538.826 474.264 535.879 475.599C538.204 470.082 539.521 471.39 544.47 471.062L544.558 469.496Z"/><path fill="#DFAC16" d="M544.558 469.496C545.506 467.307 544.788 468.116 546.641 466.858C550.353 466.788 551.414 468.826 551.406 472.278C549.067 471.219 547.049 469.762 544.558 469.496Z"/><path fill="#DFAC16" d="M579.577 447.982L580.231 448.341C580.376 449.339 580.79 451.869 580.766 452.759C580.635 457.603 571.156 462.663 567.217 462.635C562.135 456.941 566.305 456.709 569.737 452.879C570.68 451.827 571.952 449.774 572.74 448.535C574.974 447.532 577.064 447.889 579.577 447.982Z"/><path fill="#DFAC16" d="M760.441 391.283L761.15 390.842C765.118 388.342 772.222 379.814 775.868 387.313C776.674 388.97 778.131 390.034 779.506 391.18C777.669 395.053 769.753 393.954 766.701 395.566C765.159 396.381 765.596 397.047 763.181 397.76C763.494 396.275 764.297 396.521 763.917 394.506C762.701 393.435 761.607 392.399 760.441 391.283Z"/><path fill="#A46C04" d="M756.967 396.414C756.348 398.792 755.96 398.97 753.775 399.482C747.181 397.598 745.658 381.405 757.89 387.98C758.508 389.599 758.801 389.949 758.948 391.657L760.441 391.283C761.607 392.399 762.701 393.435 763.917 394.506C764.297 396.521 763.494 396.275 763.181 397.76C760.774 397.768 759.82 396.161 758.454 394.443L756.967 396.414Z"/><path fill="#875404" d="M757.89 387.98C758.508 389.599 758.801 389.949 758.948 391.657L760.441 391.283C761.607 392.399 762.701 393.435 763.917 394.506C764.297 396.521 763.494 396.275 763.181 397.76C760.774 397.768 759.82 396.161 758.454 394.443L756.967 396.414C755.925 395.588 755.607 395.157 754.728 394.145L755.012 392.619L755.178 393.062C755.962 390.255 755.917 389.973 757.89 387.98Z"/><path fill="#E7BC22" d="M512.18 765.913C514.775 764.525 520.411 764.6 522.818 765.955C522.99 768.007 521.217 768.496 520.636 771.903C517.788 775.129 516.792 774.261 516.687 779.422C516.664 780.548 516.771 780.094 515.936 781.137C514.031 781.075 514.974 781.312 513.176 779.915C511.817 775.794 514.023 779.471 513.553 775.26C510.442 771.309 509.574 770.433 512.18 765.913Z"/><path fill="#A46C04" d="M512.18 765.913C514.775 764.525 520.411 764.6 522.818 765.955C522.99 768.007 521.217 768.496 520.636 771.903C516.231 771.067 514.456 769.611 512.18 765.913Z"/><path fill="#A46C04" d="M662.587 457.458C662.391 454.619 661.027 453.889 661.117 451.179C667.209 452.213 664.548 449.695 669.551 447.721C670.735 448.756 672.259 454.278 672.743 455.997C673.63 457.507 674.262 458.197 674.162 459.931C672.087 461.962 669.88 459.742 667.965 460.522L668.449 462.117L667.598 462.236C666.268 461.031 663.389 458.824 662.587 457.458Z"/><path fill="#D39809" d="M672.743 455.997C673.63 457.507 674.262 458.197 674.162 459.931C672.087 461.962 669.88 459.742 667.965 460.522L668.449 462.117L667.598 462.236C666.268 461.031 663.389 458.824 662.587 457.458C667.818 455.541 668.589 460.184 672.743 455.997Z"/><path fill="#A46C04" d="M607.675 427.933C605.908 420.778 610.131 417.803 616.706 420.317C619.177 420.706 619.269 420.308 620.851 421.675C620.689 424.238 618.963 423.876 617.803 427.251C616.604 429.108 616.52 429.05 614.813 430.31C611.22 430.383 610.649 429.855 607.675 427.933Z"/><path fill="#A46C04" d="M612.965 424.78C615.636 423.944 614.634 423.867 617.111 424.575L617.803 427.251C616.604 429.108 616.52 429.05 614.813 430.31C613.506 428.292 613.12 428.984 612.1 426.527L612.965 424.78Z"/><path fill="#D39809" d="M607.675 427.933C609.661 426.693 611.088 424.924 612.7 423.197L613.306 423.428L612.965 424.78L612.1 426.527C613.12 428.984 613.506 428.292 614.813 430.31C611.22 430.383 610.649 429.855 607.675 427.933Z"/><path fill="#E7BC22" d="M616.706 420.317C619.177 420.706 619.269 420.308 620.851 421.675C620.689 424.238 618.963 423.876 617.803 427.251L617.111 424.575C617.681 422.751 617.288 422.143 616.706 420.317Z"/><path fill="#D39809" d="M471.568 545.581C469.784 539.748 474.438 538.347 479.073 539.092L482.348 540.682C483.993 542.037 483.928 541.899 484.731 543.861C484.373 547.425 481.245 547.942 478.217 548.732C475.993 549.127 476.097 549.14 473.887 548.712C471.782 547.108 472.546 548.1 471.568 545.581Z"/><path fill="#DFAC16" d="M482.348 540.682C483.993 542.037 483.928 541.899 484.731 543.861C484.373 547.425 481.245 547.942 478.217 548.732L479.2 545.142C479.73 543.571 481.248 542.016 482.348 540.682Z"/><path fill="#C78907" d="M471.568 545.581C472.88 544.308 472.968 544.702 475.23 544.415L479.2 545.142L478.217 548.732C475.993 549.127 476.097 549.14 473.887 548.712C471.782 547.108 472.546 548.1 471.568 545.581Z"/><path fill="#A46C04" d="M479.073 539.092L482.348 540.682C481.248 542.016 479.73 543.571 479.2 545.142L475.23 544.415C475.852 541.528 476.785 541.165 479.073 539.092Z"/><path fill="#E7BC22" d="M523.994 688.123L526.015 688.67L526.51 689.617C525.971 690.747 525.828 690.879 524.987 691.759L524.219 692.553C526.475 695.368 528.393 692.763 530.086 698.033C529.448 700.32 527.773 701.288 525.827 703.172C527.054 703.965 528.179 704.793 529.359 705.649C528.507 707.518 528.559 707.841 526.797 708.429C523.665 707.145 521.531 700.719 521.344 697.561C521.208 695.259 522.884 690.131 523.994 688.123Z"/><path fill="#E7BC22" d="M461.096 681.592C460.217 678.812 461.614 675.823 464.309 674.714C467.005 673.604 470.101 674.744 471.434 677.336C472.767 679.928 471.892 683.109 469.421 684.656C467.95 685.577 466.136 685.765 464.507 685.165C462.878 684.566 461.619 683.246 461.096 681.592Z"/><path fill="#F3D252" d="M461.096 681.592C464.674 680.734 467.826 680.761 469.421 684.656C467.95 685.577 466.136 685.765 464.507 685.165C462.878 684.566 461.619 683.246 461.096 681.592Z"/><path fill="#DFAC16" d="M501.385 668.711C504.382 668.895 506.674 671.456 506.524 674.456C506.374 677.455 503.838 679.776 500.837 679.659C498.866 679.583 497.087 678.453 496.181 676.701C495.274 674.948 495.38 672.844 496.456 671.191C497.533 669.537 499.415 668.59 501.385 668.711Z"/><path fill="#DFAC16" d="M492.615 609.571C503.648 604.7 499.987 613.915 499.189 618.892C499.851 620.213 499.702 620.255 499.582 621.77C496.58 623.101 492.977 618.014 492.013 615.52C490.98 612.848 491.522 611.996 492.615 609.571Z"/><path fill="#E7BC22" d="M492.615 609.571C496.788 613.748 491.112 613.407 499.189 618.892C499.851 620.213 499.702 620.255 499.582 621.77C496.58 623.101 492.977 618.014 492.013 615.52C490.98 612.848 491.522 611.996 492.615 609.571Z"/><path fill="#DFAC16" d="M249.842 933.296C252.701 932.282 255.84 933.786 256.842 936.649C257.844 939.513 256.326 942.645 253.459 943.635C250.608 944.618 247.499 943.112 246.503 940.266C245.508 937.42 247 934.304 249.842 933.296Z"/><path fill="#E7BC22" d="M535.44 717.663C537.216 716.806 539.314 716.971 540.934 718.095C542.553 719.219 543.443 721.127 543.262 723.09C543.081 725.052 541.858 726.766 540.061 727.575C537.332 728.803 534.124 727.61 532.86 724.898C531.596 722.187 532.746 718.962 535.44 717.663Z"/><path fill="#E7BC22" d="M473.355 709.847C481.08 709.003 483.549 713.998 479.173 720.25C470.831 720.972 467.88 715.827 473.355 709.847Z"/><path fill="#875404" d="M520.59 553.395C527.689 555.871 529.137 560.752 521.837 564.782C519.255 564.169 517.816 563.598 516.244 561.568C515.045 557.498 517.46 555.509 520.59 553.395Z"/><path fill="#F3D252" d="M484.686 640.668C480.463 631.571 490.564 629.732 493.889 635.983C494.404 640.043 492.049 641.29 489.008 643.171C487.526 642.473 486.089 641.529 484.686 640.668Z"/><path fill="#FCEB9B" d="M484.686 640.668C485.284 638.917 485.226 638.4 486.723 637.378C489.532 638.061 489.064 640.859 489.008 643.171C487.526 642.473 486.089 641.529 484.686 640.668Z"/><path fill="#DFAC16" d="M835.248 335.467C837.119 334.095 838.084 332.928 840.156 332.651C842.481 334.77 841.118 339.333 844.732 341.066L844.556 342.21C841.334 344.041 837.218 344.149 833.933 342.416C832.875 339.045 833.058 338.139 835.248 335.467Z"/><path fill="#A46C04" d="M833.933 342.416C832.875 339.045 833.058 338.139 835.248 335.467C836.805 337.891 836.578 336.658 836.388 339.192C835.436 340.567 835.077 341.17 833.933 342.416Z"/><path fill="#D39809" d="M308.685 915.254C309.846 912.455 312.108 909.94 315.448 911.403C316.833 911.998 317.914 913.136 318.437 914.55C318.976 916.003 318.791 917.009 318.494 918.442C314.497 923.344 308.31 921.658 308.685 915.254Z"/><path fill="#DFAC16" d="M308.685 915.254C312.268 918.668 313.809 917.409 318.494 918.442C314.497 923.344 308.31 921.658 308.685 915.254Z"/><path fill="#E7BC22" d="M459.574 904.302C461.829 904.655 463.369 904.99 464.657 907.178C465.379 908.399 465.524 909.878 465.05 911.215C464.647 912.37 464.058 912.86 463.234 913.707C455.105 916.572 451.619 908.264 459.574 904.302Z"/><path fill="#DFAC16" d="M459.574 904.302C461.829 904.655 463.369 904.99 464.657 907.178C465.379 908.399 465.524 909.878 465.05 911.215C464.647 912.37 464.058 912.86 463.234 913.707C459.405 911.373 459.208 908.886 459.574 904.302Z"/><path fill="#D39809" d="M622.746 433.227C625.138 431.467 625.518 431.513 628.499 431.227L631.532 433.782C632.021 436.794 631.948 437.409 630.109 439.929C629.81 440.335 629.505 440.736 629.193 441.131C623.333 441.536 620.92 438.815 622.746 433.227Z"/><path fill="#875404" d="M622.746 433.227C626.936 435.647 627.19 436.621 629.193 441.131C623.333 441.536 620.92 438.815 622.746 433.227Z"/><path fill="#A46C04" d="M491.36 557.917C493.865 556.874 496.741 558.067 497.771 560.578C498.802 563.088 497.594 565.957 495.079 566.975C492.581 567.986 489.736 566.789 488.712 564.296C487.689 561.803 488.872 558.952 491.36 557.917Z"/><path fill="#C78907" d="M454.377 888.096C461.139 887.902 464.301 892.305 458.1 897.159C454.601 897.548 453.626 898.225 451.475 895.322C451.159 892.223 452.512 890.466 454.377 888.096Z"/><path fill="#F3D252" d="M628.499 431.227C629.72 427.843 630.779 424.928 635.006 425.13C638.064 426.546 639.217 428.436 638.282 431.787C636.069 434.7 634.851 434.285 631.532 433.782L628.499 431.227Z"/><path fill="#E7BC22" d="M359.611 943.608C363.09 944.209 369.519 945.439 369.934 949.442C368.917 951.249 369.012 951.133 367.199 952.15C363.238 950.541 359.89 951.843 357.843 948.189C358.002 945.567 357.988 945.71 359.611 943.608Z"/><path fill="#DFAC16" d="M457.994 750.585C459.524 750.086 461.204 750.458 462.38 751.556C463.557 752.654 464.044 754.304 463.653 755.865C463.261 757.426 462.052 758.65 460.497 759.063C458.183 759.676 455.801 758.337 455.123 756.041C454.445 753.745 455.718 751.327 457.994 750.585Z"/><path fill="#A46C04" d="M480.317 496.136C481.802 495.45 483.543 495.642 484.844 496.633C486.144 497.624 486.79 499.253 486.522 500.866C486.255 502.479 485.118 503.812 483.567 504.33C481.344 505.073 478.928 503.95 478.064 501.771C477.2 499.592 478.189 497.118 480.317 496.136Z"/><path fill="#D39809" d="M554.558 445.669C557.981 446.472 561.104 447.78 562.679 451.088C562.637 453.193 562.98 452.247 561.352 453.917C554.61 456.883 551.807 451.25 554.558 445.669Z"/><path fill="#E7BC22" d="M828.83 353.416C830.571 352.827 830.468 352.753 832.251 353.064C835.468 355.754 833.297 361.859 831.035 364.522L829.948 364.84C828.498 363.32 828.493 362.218 828.638 360.109C826.653 358.388 827.195 359.396 826.496 357.246C826.916 355.275 827.484 354.899 828.83 353.416Z"/><path fill="#F3D252" d="M828.638 360.109C826.653 358.388 827.195 359.396 826.496 357.246C826.916 355.275 827.484 354.899 828.83 353.416C829.649 354.867 830.422 356.225 831.302 357.646L830.937 358.812L830.023 359.278C828.931 359.844 829.33 359.574 828.638 360.109Z"/><path fill="#E7BC22" d="M457.451 612.002C459.694 611.348 462.045 612.625 462.718 614.862C463.392 617.099 462.137 619.461 459.906 620.155C457.647 620.859 455.247 619.584 454.564 617.318C453.882 615.051 455.178 612.663 457.451 612.002Z"/><path fill="#D39809" d="M467.912 864.96C466.405 863.046 466.019 862.657 465.894 860.288C467.93 855.24 473.039 856.755 475.065 861.334C473.259 865.132 472.076 865.222 467.912 864.96Z"/><path fill="#C78907" d="M467.912 864.96C471.045 862.16 470.755 860.719 475.065 861.334C473.259 865.132 472.076 865.222 467.912 864.96Z"/><path fill="#E7BC22" d="M927.686 327.881C929.924 327.508 932.046 329.003 932.447 331.236C932.849 333.469 931.381 335.61 929.154 336.04C927.687 336.323 926.182 335.796 925.213 334.659C924.244 333.522 923.961 331.952 924.473 330.549C924.985 329.146 926.213 328.127 927.686 327.881Z"/><path fill="#F3D252" d="M314.127 937.556C314.864 936.249 316.252 935.444 317.752 935.454C319.253 935.465 320.63 936.289 321.348 937.606C322.066 938.924 322.013 940.527 321.209 941.794C320.009 943.683 317.524 944.272 315.604 943.124C313.685 941.975 313.03 939.506 314.127 937.556Z"/><path fill="#DFAC16" d="M486.787 672.668C488.822 671.652 491.296 672.474 492.319 674.506C493.341 676.539 492.526 679.015 490.496 680.043C488.459 681.075 485.97 680.256 484.944 678.215C483.918 676.175 484.744 673.689 486.787 672.668Z"/><path fill="#DFAC16" d="M350.527 940.337C354.487 940.745 356.236 941.691 356.488 946.079C355.415 947.98 356.148 947.375 354.518 948.295C353.416 948.113 351.53 948.151 350.11 947.999C348.178 946.626 348.762 947.5 348.072 945.453C348.658 942.819 348.937 942.617 350.527 940.337Z"/><path fill="#C78907" d="M870.24 298.413C872.376 297.733 874.661 298.906 875.354 301.038C876.046 303.171 874.887 305.463 872.758 306.168C870.612 306.878 868.298 305.707 867.599 303.557C866.901 301.407 868.086 299.099 870.24 298.413Z"/><path fill="#A46C04" d="M459.08 800.339C461.477 800.417 464.452 800.446 466.301 802.032C466.538 803.913 466.626 802.977 465.741 804.887C464.303 805.247 464.27 804.769 462.504 803.74C460.573 804.009 460.165 804.809 458.365 806.189C455.96 805.862 457.102 806.268 454.986 804.528C453.265 805.521 452.787 806.231 450.971 805.588C451.678 803.995 456.753 802.349 459.08 800.339Z"/><path fill="#E7BC22" d="M614.879 447.334C616.485 447.51 617.481 447.507 618.355 448.568C615.894 449.521 615.496 449.159 614.722 451.622L615.298 452.417C616.846 452.302 618.051 451.483 619.455 450.747L619.992 450.946L620.713 453.094C615.395 461.045 607.719 453.059 614.879 447.334Z"/><path fill="#DFAC16" d="M411.213 890.684C412.603 890.192 414.151 890.518 415.224 891.529C416.297 892.54 416.715 894.067 416.305 895.483C415.896 896.9 414.729 897.969 413.282 898.252C411.26 898.648 409.276 897.417 408.732 895.429C408.189 893.442 409.271 891.372 411.213 890.684Z"/><path fill="#A46C04" d="M506.742 655.286C508.003 654.601 509.538 654.664 510.738 655.451C511.937 656.238 512.607 657.621 512.48 659.05C512.353 660.479 511.45 661.723 510.13 662.286C508.219 663.102 506.004 662.272 505.098 660.402C504.193 658.531 504.917 656.279 506.742 655.286Z"/><path fill="#A46C04" d="M483.382 689.483C486.854 689.579 488.257 689.757 489.588 693.07C489.383 695.421 489.212 695.498 487.651 697.404C486.285 697.585 485.725 697.458 484.342 697.327C481.151 695.039 482.246 692.758 483.382 689.483Z"/><path fill="#E7BC22" d="M333.003 927.016C334.872 926.584 336.764 927.643 337.371 929.463C337.979 931.283 337.104 933.267 335.349 934.045C334.057 934.618 332.551 934.409 331.463 933.505C330.375 932.601 329.894 931.159 330.22 929.783C330.547 928.407 331.625 927.335 333.003 927.016Z"/><path fill="#F3D252" d="M811.82 356.036C816.063 356.53 819.217 360.064 817.668 364.426C814.162 363.234 811.666 363.014 810.104 359.876C810.218 357.883 810.618 357.609 811.82 356.036Z"/><path fill="#DFAC16" d="M491.264 681.473C492.677 681.15 494.149 681.681 495.03 682.832C495.911 683.984 496.039 685.543 495.358 686.823C494.677 688.102 493.312 688.867 491.865 688.779C490.027 688.667 488.55 687.221 488.4 685.386C488.249 683.551 489.469 681.884 491.264 681.473Z"/><path fill="#A46C04" d="M491.865 688.779C490.027 688.667 488.55 687.221 488.4 685.386C488.249 683.551 489.469 681.884 491.264 681.473C492.218 685.158 491.024 686.869 491.865 688.779Z"/><path fill="#DFAC16" d="M513.342 714.181L514.517 715.165C514.171 717.092 515.238 720.177 515.588 722.711C514.689 724.88 514.759 724.294 512.329 725.834C512.078 725.925 510.858 726.063 510.544 726.106L509.568 725.326C509.453 724.759 512.847 715.558 513.342 714.181Z"/><path fill="#DFAC16" d="M294.492 913.833C296.375 913.433 298.233 914.613 298.671 916.488C299.109 918.363 297.967 920.244 296.101 920.72C294.86 921.036 293.545 920.657 292.663 919.729C291.78 918.8 291.469 917.468 291.848 916.244C292.228 915.021 293.239 914.099 294.492 913.833Z"/><path fill="#F3D252" d="M321.209 941.794C322.949 940.617 322.8 940.577 324.875 940.61C326.611 941.759 325.961 940.991 326.686 943.152C326.345 944.871 326.414 944.777 325.427 946.211C323.061 947.687 323.293 948.073 320.952 948.088C319.72 945.932 320.507 944.086 321.209 941.794Z"/><path fill="#F3D252" d="M520.363 589.342C523.341 589.217 524.971 588.73 527.066 590.98C527.278 592.742 526.995 592.905 526.184 594.489C523.456 595.352 523.47 595.843 521.159 595.25C520.094 593.636 520.367 591.378 520.363 589.342Z"/><path fill="#DFAC16" d="M467.707 849.87C470.62 849.839 471.613 849.633 473.57 851.908C473.727 853.995 473.506 854.038 472.496 855.834L471.776 855.859C469.017 855.973 467.934 856.447 466.476 853.876C466.52 851.778 466.739 851.688 467.707 849.87Z"/><path fill="#DFAC16" d="M483.263 663.402C484.978 662.685 486.949 663.495 487.665 665.211C488.38 666.927 487.568 668.897 485.852 669.611C484.137 670.324 482.17 669.513 481.455 667.8C480.741 666.086 481.55 664.118 483.263 663.402Z"/><path fill="#DFAC16" d="M300.521 944.062C299.314 945.212 297.426 945.242 296.183 944.131C294.94 943.021 294.759 941.141 295.767 939.813C296.775 938.486 298.634 938.155 300.038 939.054C300.865 939.583 301.403 940.463 301.497 941.44C301.591 942.418 301.231 943.384 300.521 944.062Z"/><path fill="#DFAC16" d="M300.038 939.054C300.865 939.583 301.403 940.463 301.497 941.44C301.591 942.418 301.231 943.384 300.521 944.062L298.849 941.501C298.887 939.66 298.578 940.481 300.038 939.054Z"/><path fill="#E7BC22" d="M503.785 687.428C506.174 688.213 507.264 688.931 508.22 691.35C508.208 693.16 508.312 693.078 507.298 694.547L506.336 694.296C503.698 693.622 502.64 693.47 501.906 690.646C502.37 688.697 502.342 688.839 503.785 687.428Z"/><path fill="#D39809" d="M470.39 612.114C471.491 611.78 472.687 612.076 473.505 612.885C474.324 613.694 474.634 614.886 474.313 615.991C473.992 617.096 473.091 617.936 471.967 618.181C470.322 618.538 468.688 617.534 468.265 615.905C467.841 614.276 468.779 612.603 470.39 612.114Z"/><path fill="#DFAC16" d="M659.442 433.892L661.414 434.299C662.975 435.681 662.469 434.863 663.063 436.791C662.646 438.762 662.598 438.611 661.077 439.986C658.725 440.438 657.681 441.069 656.729 438.692C657.388 436.221 657.786 435.958 659.442 433.892Z"/><path fill="#DFAC16" d="M716.248 443.23C718.159 443.123 718.079 443.033 719.836 443.715C721.139 445.864 720.885 449.366 720.754 451.904C719.449 451.649 719.509 451.632 718.263 451.16C717.093 448.176 716.171 446.402 716.248 443.23Z"/><path fill="#C78907" d="M872.971 350.004L872.416 347.696C873.231 345.676 872.555 346.287 874.168 345.472C876.338 346.193 875.355 345.588 876.897 347.799C878.32 350.103 878.299 349.358 878.349 351.74L877.512 352.4C873.641 351.779 875.618 351.568 872.971 350.004Z"/><path fill="#D39809" d="M872.971 350.004L872.416 347.696C873.231 345.676 872.555 346.287 874.168 345.472C876.338 346.193 875.355 345.588 876.897 347.799L872.971 350.004Z"/><path fill="#A46C04" d="M825.408 369.482C826.958 369.281 828.402 370.308 828.721 371.839C829.039 373.37 828.125 374.888 826.622 375.322C825.543 375.634 824.381 375.315 823.612 374.496C822.843 373.677 822.598 372.497 822.977 371.44C823.355 370.383 824.294 369.627 825.408 369.482Z"/><path fill="#A46C04" d="M496.804 585.652C497.723 585.05 498.901 585.01 499.859 585.546C500.817 586.083 501.398 587.108 501.366 588.206C501.333 589.304 500.693 590.293 499.705 590.772C498.305 591.451 496.619 590.925 495.853 589.572C495.086 588.219 495.503 586.503 496.804 585.652Z"/><path fill="#875404" d="M482.734 845.683C483.518 844.99 484.615 844.775 485.602 845.121C486.589 845.467 487.312 846.32 487.492 847.351C487.671 848.381 487.279 849.429 486.467 850.088C485.247 851.079 483.459 850.912 482.443 849.713C481.427 848.515 481.556 846.723 482.734 845.683Z"/><path fill="#F3D252" d="M513.122 493.76C514.076 493.295 515.211 493.4 516.063 494.034C516.915 494.667 517.342 495.723 517.171 496.771C517 497.819 516.259 498.684 515.249 499.014C513.83 499.477 512.294 498.763 511.734 497.379C511.174 495.996 511.78 494.414 513.122 493.76Z"/><path fill="#DFAC16" d="M508.677 582.162C509.944 581.325 511.645 581.643 512.524 582.881C513.403 584.119 513.142 585.83 511.934 586.75C511.116 587.373 510.024 587.501 509.084 587.083C508.145 586.665 507.508 585.767 507.423 584.743C507.338 583.718 507.819 582.728 508.677 582.162Z"/><path fill="#DFAC16" d="M502.485 846.861C503.923 846.684 505.259 847.629 505.573 849.043C505.887 850.457 505.076 851.879 503.699 852.327C502.682 852.659 501.564 852.385 500.816 851.62C500.068 850.855 499.819 849.732 500.173 848.722C500.527 847.712 501.423 846.991 502.485 846.861Z"/><path fill="#A46C04" d="M679.637 430.38C681.237 431.037 681.203 430.922 682.282 432.241C682.438 434.215 681.025 435.737 679.855 437.466C677.408 436.702 678.168 437.435 677.082 435.674C677.187 433.782 678.575 432.05 679.637 430.38Z"/><path fill="#D39809" d="M743.974 374.534C745.219 373.962 746.694 374.415 747.403 375.587C748.112 376.758 747.828 378.275 746.744 379.112C745.925 379.744 744.816 379.851 743.891 379.387C742.966 378.922 742.389 377.969 742.407 376.934C742.425 375.899 743.034 374.966 743.974 374.534Z"/><path fill="#C78907" d="M685.544 455.38C687.975 455.522 688.622 455.44 690.842 456.289C692.3 458.152 691.807 457.082 691.958 459.77C689.572 459.709 689.002 459.793 686.781 459.081C685.331 457.374 685.774 458.016 685.544 455.38Z"/><path fill="#A46C04" d="M789.012 371.117C790.931 371.127 792.181 370.979 793.614 372.22C794.407 374.107 794.038 374.772 793.566 376.774C791.909 376.431 791.458 375.994 790.016 375.099C788.781 373.272 788.929 373.25 789.012 371.117Z"/><path fill="#A46C04" d="M826.478 386.209C828.156 388.179 827.773 387.083 827.786 389.57C826.689 391.796 826.792 391.71 824.816 393.182C823.124 391.24 823.525 392.289 823.08 390.113C823.609 388.281 824.967 387.487 826.478 386.209Z"/><path fill="#DFAC16" d="M543.83 607.384C545.613 608.145 546.038 608.413 547.633 609.398C548.708 611.617 548.463 610.429 548.01 613.144C545.461 613.052 546.06 613.427 544.174 612.214C543.328 610.547 543.667 609.281 543.83 607.384Z"/><path fill="#A46C04" d="M613.143 436.954C614.199 436.109 615.741 436.277 616.589 437.332C617.436 438.386 617.271 439.928 616.218 440.778C615.162 441.63 613.615 441.464 612.765 440.407C611.915 439.349 612.084 437.803 613.143 436.954Z"/><path fill="#E7BC22" d="M528.993 573.257C529.43 573.347 530.101 573.81 530.539 574.066L530.628 575.043C529.521 576.716 528.483 576.986 526.669 577.864C526.368 577.749 525.265 577.019 524.945 576.817L524.71 575.724C525.801 574.262 527.245 573.95 528.993 573.257Z"/><path fill="#DFAC16" d="M559.166 486.996C560.313 486.473 561.669 486.938 562.255 488.054C562.841 489.17 562.454 490.55 561.372 491.198C560.616 491.65 559.672 491.647 558.919 491.191C558.166 490.734 557.727 489.898 557.779 489.019C557.831 488.14 558.365 487.361 559.166 486.996Z"/><path fill="#E7BC22" d="M492.552 758.482C494.789 759.388 494.072 758.652 495.156 760.342C494.788 762.018 493.316 763.005 491.98 764.245C491.138 764.475 491.658 764.429 490.433 764.014C490.044 761.449 490.994 760.353 492.552 758.482Z"/><path fill="#DFAC16" d="M551.665 542.262C554.437 542.925 555.99 544.517 555.574 547.388C553.01 547.211 552.717 547.391 550.95 545.969C550.685 543.595 550.621 544.796 551.665 542.262Z"/><path fill="#A46C04" d="M902.082 322.745C902.645 322.111 903.506 321.829 904.335 322.007C905.164 322.184 905.834 322.794 906.088 323.603C906.343 324.412 906.143 325.295 905.564 325.916C904.685 326.859 903.21 326.919 902.257 326.051C901.303 325.183 901.225 323.709 902.082 322.745Z"/><path fill="#C78907" d="M840.735 392.43C841.466 391.999 842.374 392.001 843.102 392.436C843.83 392.871 844.263 393.669 844.23 394.517C844.197 395.364 843.703 396.126 842.943 396.503C841.826 397.057 840.47 396.627 839.876 395.531C839.281 394.434 839.661 393.064 840.735 392.43Z"/><path fill="#F3D252" d="M513.698 673.709C515.215 674.389 514.574 673.931 515.512 675.267C515.534 677.314 514.538 678.314 513.367 680.052C512.082 679.372 512.178 679.404 511.332 678.206C511.548 675.908 512.094 675.922 513.698 673.709Z"/><path fill="#FCEB9B" d="M376.983 892.767C378.102 892.165 379.496 892.579 380.105 893.694C380.714 894.808 380.309 896.206 379.199 896.822C378.078 897.444 376.664 897.035 376.049 895.91C375.435 894.784 375.854 893.374 376.983 892.767Z"/><path fill="#D39809" d="M437.657 840.4C438.722 839.906 439.988 840.314 440.566 841.336C441.143 842.359 440.838 843.654 439.864 844.31C439.162 844.785 438.253 844.824 437.511 844.413C436.77 844.002 436.323 843.209 436.354 842.362C436.384 841.515 436.888 840.757 437.657 840.4Z"/><path fill="#DFAC16" d="M509.114 699.863C510.008 699.051 511.388 699.098 512.225 699.971C513.061 700.844 513.051 702.224 512.201 703.084C511.63 703.661 510.792 703.883 510.01 703.664C509.229 703.444 508.628 702.818 508.442 702.028C508.256 701.238 508.513 700.409 509.114 699.863Z"/><path fill="#A46C04" d="M712.901 399.977C713.922 399.291 715.307 399.567 715.986 400.592C716.666 401.617 716.381 403 715.351 403.673C714.331 404.34 712.963 404.058 712.29 403.042C711.616 402.026 711.89 400.656 712.901 399.977Z"/><path fill="#DFAC16" d="M541.927 569.594C542.998 569.085 544.279 569.507 544.838 570.552C545.397 571.598 545.037 572.898 544.02 573.507C543.317 573.927 542.44 573.927 541.737 573.506C541.035 573.085 540.621 572.311 540.66 571.493C540.7 570.675 541.187 569.945 541.927 569.594Z"/><path fill="#DFAC16" d="M628.115 457.614C629.15 457.514 630.115 458.15 630.433 459.14C630.752 460.131 630.337 461.209 629.437 461.731C628.654 462.185 627.674 462.117 626.961 461.559C626.249 461.001 625.948 460.065 626.202 459.196C626.456 458.327 627.214 457.7 628.115 457.614Z"/><path fill="#C78907" d="M528.184 765.608C528.884 765.12 529.802 765.077 530.544 765.5C531.286 765.922 531.719 766.733 531.656 767.584C531.593 768.436 531.047 769.175 530.251 769.484C529.207 769.89 528.025 769.451 527.498 768.463C526.971 767.475 527.266 766.249 528.184 765.608Z"/><path fill="#C78907" d="M512.472 621.986C513.21 621.665 514.064 621.771 514.701 622.264C515.338 622.756 515.655 623.556 515.53 624.352C515.404 625.147 514.855 625.81 514.098 626.082C512.978 626.485 511.742 625.927 511.303 624.821C510.864 623.715 511.381 622.461 512.472 621.986Z"/><path fill="#DFAC16" d="M829.502 374.582C830.593 374.165 831.819 374.673 832.295 375.739C832.772 376.804 832.333 378.057 831.296 378.591C830.571 378.965 829.7 378.907 829.031 378.442C828.362 377.976 828.006 377.179 828.104 376.37C828.203 375.561 828.741 374.873 829.502 374.582Z"/><path fill="#C78907" d="M510.572 801.873C511.653 801.528 512.818 802.065 513.258 803.11C513.698 804.156 513.267 805.365 512.264 805.896C511.531 806.284 510.642 806.225 509.967 805.744C509.291 805.262 508.946 804.441 509.074 803.621C509.202 802.802 509.782 802.125 510.572 801.873Z"/><path fill="#E7BC22" d="M503.678 766.712C504.555 765.982 505.845 766.049 506.642 766.866C507.438 767.683 507.472 768.975 506.719 769.832C506.177 770.449 505.335 770.71 504.539 770.508C503.743 770.306 503.128 769.675 502.946 768.874C502.765 768.073 503.047 767.238 503.678 766.712Z"/><path fill="#C78907" d="M756.011 436.927C757.068 436.446 758.316 436.884 758.841 437.92C759.366 438.956 758.982 440.221 757.969 440.789C757.275 441.179 756.423 441.156 755.75 440.731C755.078 440.305 754.692 439.546 754.747 438.752C754.801 437.957 755.286 437.257 756.011 436.927Z"/><path fill="#DFAC16" d="M542.058 591.946C542.796 591.548 543.698 591.612 544.372 592.112C545.046 592.611 545.369 593.456 545.202 594.278C545.035 595.1 544.406 595.751 543.591 595.947C542.536 596.201 541.456 595.633 541.068 594.62C540.679 593.607 541.103 592.462 542.058 591.946Z"/><path fill="#DFAC16" d="M487.339 541.972C488.396 541.777 489.435 542.388 489.778 543.407C490.121 544.425 489.663 545.541 488.703 546.025C487.948 546.405 487.041 546.31 486.381 545.782C485.721 545.253 485.43 544.389 485.636 543.569C485.842 542.749 486.508 542.125 487.339 541.972Z"/><path fill="#DFAC16" d="M439.843 854.361C440.51 853.868 441.401 853.801 442.135 854.189C442.868 854.576 443.315 855.35 443.283 856.179C443.252 857.008 442.748 857.746 441.987 858.077C440.98 858.515 439.805 858.128 439.256 857.176C438.707 856.225 438.96 855.014 439.843 854.361Z"/><path fill="#F3D252" d="M434.618 895.127C434.629 895.5 435.119 897.685 435.224 898.194C434.545 900.194 435.128 899.279 432.843 900.628C431.662 899.215 431.54 899.311 431.274 897.534C432.43 895.754 432.363 896.21 434.618 895.127Z"/><path fill="#C78907" d="M554.575 584.463C555.584 583.945 556.823 584.308 557.393 585.289C557.964 586.27 557.666 587.526 556.716 588.147C556.056 588.578 555.212 588.61 554.521 588.23C553.829 587.85 553.405 587.119 553.416 586.33C553.427 585.542 553.873 584.824 554.575 584.463Z"/><path fill="#A46C04" d="M708.39 432.284C709.466 431.869 710.676 432.385 711.121 433.449C711.565 434.513 711.082 435.737 710.031 436.21C709.325 436.528 708.502 436.437 707.882 435.973C707.262 435.51 706.943 434.746 707.049 433.979C707.154 433.212 707.668 432.563 708.39 432.284Z"/><path fill="#C78907" d="M562.144 578.141C563.225 577.747 564.423 578.294 564.834 579.369C565.245 580.445 564.717 581.651 563.648 582.079C562.941 582.361 562.137 582.241 561.544 581.765C560.951 581.288 560.661 580.528 560.785 579.778C560.91 579.027 561.429 578.401 562.144 578.141Z"/><path fill="#D39809" d="M297.384 957.991C298.046 957.503 298.932 957.444 299.652 957.841C300.373 958.238 300.797 959.017 300.739 959.838C300.681 960.658 300.151 961.37 299.382 961.662C298.396 962.035 297.286 961.623 296.783 960.697C296.279 959.771 296.535 958.616 297.384 957.991Z"/><path fill="#DFAC16" d="M343.062 901.457C344.107 901.157 345.209 901.705 345.601 902.72C345.993 903.735 345.544 904.881 344.568 905.361C343.854 905.712 343.004 905.63 342.37 905.149C341.737 904.668 341.43 903.871 341.576 903.09C341.722 902.308 342.297 901.676 343.062 901.457Z"/><path fill="#DFAC16" d="M512.255 507.246C513.29 506.944 514.385 507.477 514.784 508.479C515.183 509.48 514.755 510.621 513.795 511.112C513.089 511.474 512.238 511.405 511.6 510.933C510.961 510.461 510.645 509.668 510.784 508.886C510.923 508.105 511.493 507.469 512.255 507.246Z"/><path fill="#F3D252" d="M519.172 514.629C520.245 514.303 521.382 514.892 521.735 515.956C522.088 517.02 521.529 518.172 520.474 518.552C519.767 518.807 518.978 518.658 518.413 518.164C517.847 517.669 517.594 516.907 517.752 516.173C517.91 515.438 518.453 514.847 519.172 514.629Z"/><path fill="#D39809" d="M851.27 353.89C852.185 353.299 853.401 353.521 854.048 354.396C854.696 355.272 854.552 356.499 853.72 357.202C853.132 357.698 852.318 357.826 851.606 357.534C850.895 357.243 850.404 356.58 850.333 355.814C850.263 355.048 850.624 354.307 851.27 353.89Z"/><path fill="#C78907" d="M586.952 461.079C587.914 460.492 589.17 460.798 589.755 461.761C590.34 462.725 590.032 463.98 589.068 464.563C588.106 465.145 586.854 464.838 586.271 463.877C585.687 462.916 585.992 461.664 586.952 461.079Z"/><path fill="#D39809" d="M735.425 458.74C736.416 458.295 737.582 458.708 738.072 459.678C738.563 460.647 738.206 461.831 737.261 462.367C736.609 462.737 735.806 462.718 735.171 462.318C734.537 461.918 734.174 461.201 734.227 460.453C734.28 459.705 734.74 459.046 735.425 458.74Z"/><path fill="#D39809" d="M679.548 473.779C680.041 473.235 680.799 473.015 681.507 473.21C682.216 473.406 682.754 473.983 682.898 474.704C683.043 475.424 682.769 476.165 682.191 476.618C681.395 477.242 680.254 477.153 679.565 476.413C678.876 475.673 678.869 474.528 679.548 473.779Z"/><path fill="#DFAC16" d="M911.162 297.845C912.096 297.577 913.081 298.06 913.442 298.962C913.802 299.865 913.421 300.893 912.56 301.343C911.92 301.677 911.145 301.617 910.563 301.19C909.981 300.763 909.693 300.041 909.821 299.331C909.948 298.62 910.468 298.044 911.162 297.845Z"/></svg>