<?xml version="1.0" encoding="utf-8" ?><svg xmlns="http://www.w3.org/2000/svg" xmlns:xlink="http://www.w3.org/1999/xlink" width="4500" height="2535" viewBox="0 0 4500 2535"><defs><linearGradient id="gradient_0" gradientUnits="userSpaceOnUse" x1="2218.0703" y1="1397.3262" x2="4340.2563" y2="1119.3365"><stop offset="0" stop-color="#B48C54"/><stop offset="1" stop-color="#DCBE80"/></linearGradient></defs><path fill="url(#gradient_0)" d="M3490.57 605.688C3727.27 594.366 3806.37 746.892 3811.59 853.587C3813.34 889.49 3808.41 921.689 3796.1 956.885C3860.57 917.151 3927.99 867.386 4012.79 840.981C4045.41 830.987 4088.07 825.487 4124.07 832.619C4230.09 853.627 4272.52 931.289 4289.09 986.613C4327.95 1116.37 4270.99 1250.62 4200.87 1373.65C4126.74 1503.73 4026.56 1630.4 3892.69 1744.46C3860.94 1770.44 3821.07 1806.41 3769.96 1820.78C3677.44 1846.79 3611.32 1763.35 3597.59 1725.23C3577.78 1670.24 3577.89 1612.97 3575.59 1557.07C3574.91 1540.41 3582.8 1521.08 3575.03 1504.94C3574.15 1503.39 3572.11 1503.64 3568.72 1503.26C3549.18 1508.69 3514.69 1548.24 3501.95 1560.02C3461.74 1597.22 3417.87 1632.54 3371.89 1667.55C3362.6 1674.61 3345.86 1686.38 3328.8 1687.13C3294.74 1687.27 3273.37 1663.17 3265.17 1647.17C3241.47 1597.44 3257.88 1539.5 3281.11 1490.52C3297.88 1455.16 3315.36 1420.44 3332.77 1385.56L3488.46 1082.97C3499.43 1061.63 3518.9 1025.69 3528.55 1003.04C3529.08 1001.79 3526.24 1000.83 3524.14 999.741L3518.74 1000.12C3426.34 1034.55 3176.44 1378.37 3118.21 1455.07C3162.65 1527.66 3366.76 1748.08 3171.94 1789.62C3189.03 1782.42 3200.39 1774.83 3208.09 1763.59C3248.87 1704.03 3209.23 1642.31 3173.39 1586.74C3154.35 1557.38 3134.27 1528.24 3113.15 1499.33L3101.84 1483.75C3043.37 1549.76 2995.51 1621.15 2925.94 1683.82C2906.49 1701.35 2863.81 1722.01 2824.95 1714.91C2809.48 1712.09 2803.07 1702.39 2790.88 1696.95C2725.41 1666 2688.29 1624.99 2650.05 1583.01C2600.96 1528.23 2555.84 1472.34 2514.78 1415.49C2502.19 1397.92 2489.77 1375.77 2476.78 1359.14L2474.99 1356.88C2506.39 1446.52 2507.43 1554 2441.46 1639.43C2418.1 1669.69 2385.29 1693.1 2329.38 1704.86C2448.18 1605.5 2411.58 1447.12 2382.15 1334.95C2371.38 1293.12 2352.74 1251.52 2353.55 1209.03C2352.57 1198.03 2361.5 1175.27 2388.73 1177.72C2428.64 1181.33 2446.22 1232.56 2455.76 1250.97C2464.84 1268.58 2474.75 1286.06 2485.46 1303.39C2537.25 1388.14 2604.98 1475.59 2670.41 1557.34C2688.57 1580.03 2728.32 1628.32 2755.36 1646.19L2757.67 1647.7C2753.68 1624.05 2740.05 1598.8 2730.81 1575.69C2698.24 1494.27 2650.51 1213.22 2819.97 1171.89C2791.19 1238.84 2782.09 1314.34 2779.25 1383C2775.16 1481.93 2774.22 1579.23 2816.19 1676.23C2881.79 1711.31 2930.91 1640.85 2958.81 1615.79C3011.29 1568.67 3050.32 1517.3 3091.01 1466.76C3080.95 1442.54 3065.63 1419.49 3054.25 1395.67C3032.68 1349.82 3016.02 1303.27 3004.37 1256.29C2960.39 1074.45 3014.14 859.046 3213.17 707.889C3281.38 656.08 3374.04 614.453 3490.57 605.688ZM3109.51 1434.4C3168.98 1360.01 3423.4 974.294 3530.89 951.562C3540.19 949.594 3549.83 950.046 3558.67 952.531C3579.97 958.52 3594.18 974.022 3600.72 986.427C3615.85 1015.16 3610.1 1048.36 3601.79 1077.49C3587.22 1128.55 3557.17 1178.68 3532.83 1228.52C3470.95 1355.27 3399.28 1480.54 3340.97 1607.82C3337.61 1615.14 3329.77 1626.63 3341.97 1632.16C3352.75 1630.24 3369.34 1619.42 3377.56 1614.48C3446.14 1573.27 3501.6 1525.9 3547.85 1475.87C3589.94 1429.83 3625.39 1381.95 3653.84 1332.7C3673.72 1298.66 3690.2 1264.25 3710.79 1230.22C3732.1 1199.22 3760.52 1158.38 3816.63 1142.46C3841.92 1135.28 3870.81 1146.02 3876.37 1160.93C3889.86 1197.1 3850.95 1236.55 3827.42 1269.36C3796.51 1307.42 3781.19 1339.45 3759.64 1378.85C3704.19 1480.22 3675.78 1582.55 3669.41 1688.54C3667.87 1714.14 3661.46 1771.96 3708.96 1786.51C3720.47 1789.98 3733.99 1790.66 3746.41 1788.4C3826.95 1773.44 3979.43 1613.19 4017.3 1567.54C4134.27 1426.53 4306.72 1114.86 4208.05 962.168C4190.62 935.187 4160.78 907.669 4112.93 895.075C4078.91 886.121 4040.87 886.52 4006.2 893.972C3909.99 914.644 3836.37 984.721 3778.64 1030.19C3762.02 1043.29 3744.94 1058.62 3724.25 1069.78C3717.22 1073.57 3710.4 1077.55 3700.43 1075.49C3680.42 1062.91 3739.5 998.285 3747.92 980.6C3793.87 884.1 3796.72 672.892 3554.48 666.484C3546.33 666.268 3533.22 665.882 3525.05 666.448C3430.21 671.958 3353.25 703.067 3295.15 745.076C3085.66 896.547 3037.55 1128.57 3069.07 1314.05C3076.24 1356.22 3090.64 1394.45 3109.51 1434.4Z"/><path fill="#CDA461" d="M1471.17 1210.61C1471.47 1214.49 1463.67 1235.8 1462.01 1240.88C1456.45 1257.63 1451.67 1274.46 1447.68 1291.35C1436.91 1343.4 1431.94 1395.77 1432.79 1448.17C1433.74 1497.69 1439.08 1547.15 1448.78 1596.37C1455.19 1631.39 1468.83 1672.35 1465.58 1706.89C1465.01 1712.95 1461.97 1714.95 1453.92 1718.53C1448.9 1719.29 1445.74 1719.35 1440.87 1718.14C1360.95 1698.31 1178.97 1447.41 1140.42 1388.31C1158.01 1444.35 1167.29 1499.25 1154.92 1556C1142.16 1614.52 1110.86 1701.01 1000.5 1723.64C1045.74 1685.51 1060.38 1651.72 1072.02 1606.95C1089.3 1526.46 1072.22 1445.42 1050.31 1365.73C1039.21 1325.05 1023.16 1286.44 1023.88 1245.02C1024.47 1210.36 1071.09 1205.74 1092.94 1236.35C1114.6 1266.68 1127.12 1299.7 1146.31 1330.91C1202.32 1419.18 1265.62 1505.93 1336.01 1590.87C1343.71 1600.13 1395.1 1663.47 1409.77 1664.47C1412.93 1657.84 1392.01 1613.28 1387.98 1602.88C1355.48 1518.89 1307.77 1257.31 1471.17 1210.61Z"/><path fill="#CDA461" d="M1897.98 1187.03C1949.45 1189.87 1963.71 1238.16 1972.65 1261.65C2002.22 1233 2046.24 1195.59 2112.57 1195.1C2140.85 1194.89 2174.69 1204.99 2194.17 1217.12C2293.03 1278.67 2320.46 1372.66 2322.28 1453.23C2321.68 1518.4 2296.96 1598.96 2235.82 1654.57C2218.31 1670.5 2200.35 1681.71 2177.18 1694.67C2233.85 1630.35 2255.05 1560.13 2252.42 1488.71C2249.71 1415.02 2220.59 1297.91 2123.9 1245.34C2058.31 1216.57 2011.67 1246.62 1978.53 1277.25C2008.71 1386.34 2019.5 1511.4 1989.14 1621.18C1968.56 1695.58 1883.43 1814.9 1760.11 1696.55C1778.28 1706.83 1799.16 1718.75 1825.18 1722.08C1838.66 1723.8 1852.15 1722.63 1863.77 1718.33C1970.9 1678.64 1926.15 1407.59 1911.03 1345.06C1906.51 1326.27 1901.29 1307.53 1895.38 1288.85C1886.59 1261.34 1851.39 1204.95 1897.98 1187.03Z"/><path fill="#CDA461" d="M545.333 1212.14C701.758 1200.8 776.124 1323.72 789.84 1391.69C812.533 1504.15 776.3 1631.28 652.092 1722.54C690.515 1676.12 706.358 1648.41 725.369 1598.83C740.109 1549.99 745.038 1504.27 732.352 1453.77C716.172 1389.36 647.109 1275.51 496.102 1287.55C427.105 1293.05 370.586 1329.65 331.609 1360.1C356.674 1295.98 419.018 1224.72 545.333 1212.14Z"/><path fill="#CDA461" d="M854.759 1209.63C886.172 1210.47 902.309 1228.75 910.916 1243.67C937.416 1289.61 950.302 1342.79 955.784 1390.84C966.356 1483.51 978.256 1625.46 905.796 1711.22C902.237 1714.99 901.983 1715.51 896.88 1718.85L895.349 1717.42C920.828 1592.36 897.491 1442.66 842.907 1320.83C831.584 1295.56 806.804 1244.77 827.708 1220.1C833.244 1213.57 843.154 1211.45 854.759 1209.63Z"/><path fill="#CDA461" d="M1729.06 1211.96C1795.26 1207.83 1816.24 1254.68 1823.85 1283.29C1837.33 1333.95 1830.84 1403.38 1775.56 1446.23C1770.34 1449.37 1763.8 1452.82 1758.29 1455.9C1772.85 1415.15 1773.54 1368.04 1741.92 1329.54C1716.21 1298.22 1678.24 1266.48 1698.5 1229.7C1703.28 1221.01 1714.84 1215.69 1729.06 1211.96Z"/><path fill="white" d="M549.785 1826.48L564.086 1826.55C567.092 1827.56 570.648 1828.32 570.963 1830.64C572.232 1840.02 569.253 1872.03 572.841 1879.07C605.576 1876.89 590.41 1838.64 595.943 1827.64C602.932 1826.15 606.079 1826.83 614.032 1827.07C618.651 1832.23 615.079 1869.66 609.713 1877.32C601.544 1888.99 590.759 1892.59 572.114 1897.4L572.368 1909.78C624.479 1910.23 636.289 1906.08 637.573 1875.57C637.706 1863.29 629.039 1828.8 650.381 1824.36L654.783 1826.1C657.771 1829.09 659.716 1832.63 659.488 1836.44C657.983 1861.54 665.715 1901.74 634.722 1921.98C621.442 1930.66 572.865 1928.42 552.998 1928.25L549.785 1826.48Z"/><path fill="white" d="M1113.9 1824.41C1173.36 1825.62 1169.39 1885.43 1157.74 1907.72C1149.98 1922.55 1116.77 1942.26 1100.01 1921.51C1097.06 1917.85 1098.41 1911.95 1101.99 1908.59C1111.91 1909.84 1114.29 1910.41 1124.17 1909.97C1154.22 1900.8 1145.33 1863.64 1131.68 1849.33C1127.15 1846.94 1117.24 1843.37 1111.81 1844.38C1067.66 1852.64 1097.43 1915.04 1081.38 1927.16C1072.36 1929.23 1076.99 1928.81 1066.89 1928.11C1061.84 1914.23 1067.35 1851.94 1065.58 1834.06C1065.08 1829.08 1065.68 1828.17 1070.71 1825.65C1078.53 1824.86 1074.9 1824.57 1081.99 1826.57C1088.02 1831.97 1086.25 1833.99 1086.4 1840.99C1095.38 1832.11 1098.26 1829.43 1113.9 1824.41Z"/><path fill="white" d="M2944.28 1824.39C3028.75 1829.03 2997.4 1953.55 2932.48 1926.71C2927.81 1922.11 2929.81 1913.36 2930.03 1907.39C2984.3 1924.77 2978.27 1866.88 2961.8 1849.37C2902.87 1821.82 2917.4 1915.13 2915.49 1927.19C2909.73 1928.81 2904.29 1928.2 2897.16 1928.18L2895.52 1926.6C2895.51 1911.47 2892.46 1834.08 2897.64 1828.28C2904.97 1825.31 2902.96 1826.25 2913.4 1825.81C2917.48 1828.62 2915.9 1837.67 2915.97 1842.36C2924.96 1832.28 2927.05 1829.75 2944.28 1824.39Z"/><path fill="white" d="M1689.36 1826.5L1716.29 1826.37C1792.35 1826.21 1776.23 1867.27 1778.35 1896.93C1778.87 1904.24 1782.55 1923.02 1773.79 1927.85C1766.85 1928.64 1766.76 1928.42 1759.6 1927.87C1751.5 1916.58 1768.8 1873.51 1747.47 1850.32C1734.02 1844.5 1727.12 1845.5 1710.01 1845.55C1710.28 1861.57 1720.37 1926.55 1687.36 1931.82C1679.57 1930.69 1679.76 1930.41 1674.05 1927.43C1672.24 1921.89 1670.7 1917.36 1676.16 1912.46C1679.19 1911.39 1682.85 1910.26 1685.4 1908.85C1694.9 1903.62 1689.54 1837.56 1689.36 1826.5Z"/><path fill="white" d="M368.346 1826.5C414.371 1826.41 452.226 1825.11 456.158 1858.64C457.304 1868.42 460.4 1924.42 453.866 1928.99C431.89 1933.16 436.881 1914.09 436.761 1908.28C436.363 1889.09 442.467 1868.42 426.886 1850.67C413.227 1844.41 406.949 1845.51 388.983 1845.55C388.966 1855.54 402.217 1948.01 353.633 1927.92C351.697 1924.25 349.845 1920.79 350.914 1916.91C352.035 1912.85 358.821 1911.62 363.567 1909.09C374.126 1903.47 368.599 1838.76 368.346 1826.5Z"/><path fill="white" d="M826.032 1826.41L845.987 1826.32C846.46 1852.41 849.173 1867.06 819.003 1888.49L848.511 1928.22L824.334 1928.25L786.923 1878C767.465 1893.78 771.436 1906.3 771.782 1925.08L771.483 1926.91L768.433 1928.33C758.836 1928.92 763.018 1929.46 755.183 1927.47C752.985 1925.65 751.055 1924.05 751.106 1921.8C751.664 1897.42 749.616 1883.37 775.513 1863.83C765.955 1851.3 756.101 1838.85 745.953 1826.47L771.881 1826.49L809.769 1874.04C829.77 1857.84 826.348 1845.41 826.032 1826.41Z"/><path fill="white" d="M1310.91 1826.5C1316.03 1826.5 1325.2 1825.86 1329.88 1826.7C1341.76 1828.84 1358.6 1893.03 1369.58 1900.57C1392.46 1892.64 1370.92 1834.5 1384.23 1827.11C1392.65 1826.84 1395.39 1825.89 1401.47 1827.83L1401.43 1874.33C1400.09 1889.19 1398.13 1909.26 1377.84 1920.01C1358.81 1930.09 1337.92 1928.55 1313.98 1928.31L1313.98 1909.05L1350.27 1909.05C1336.9 1881.57 1323.78 1854.05 1310.91 1826.5Z"/><path fill="white" d="M1215.98 1826.5C1220.67 1833.75 1239.64 1866.65 1248.02 1869.1C1262.64 1861.05 1253.74 1830.59 1260.19 1826.82C1267.37 1826.5 1269.04 1826.04 1275.6 1827.66C1278.45 1830.01 1280.28 1832.03 1280.13 1834.98C1279.17 1854.08 1276.68 1871.01 1254.6 1885.87L1267.71 1905.99L1282.03 1927.95C1260.38 1928.91 1221.17 1928.25 1198.2 1928.25L1198.21 1908.8L1245.51 1908.8L1190.78 1826.5L1215.98 1826.5Z"/><path fill="white" d="M2008.08 1824.74C2082.01 1823.21 2065.91 1882.77 2055.86 1908.19L2057.56 1909.6C2064.32 1909.47 2066.03 1909.29 2072.78 1910C2074.89 1913.88 2073.86 1923.63 2073.76 1928.25L1992.37 1928.25C1990.06 1928.25 1986.87 1927.93 1984.48 1927.75C1980.56 1924.01 1982.27 1914.38 1982.57 1909.48C1998.85 1909.48 2015.14 1909.42 2031.43 1909.29C2042.13 1897.2 2046.74 1883.68 2044.75 1870.22C2040.8 1844.42 2024.57 1842.82 1985.85 1846.04C1983.36 1840.35 1984.02 1834.63 1984.03 1828.71C1992.36 1826.86 1999.42 1825.97 2008.08 1824.74Z"/><path fill="white" d="M2609.82 1803.75C2616.86 1803.58 2622.27 1802.86 2627.79 1805.02C2633.08 1810.51 2630.48 1819.32 2630.24 1826.5L2689.29 1826.5C2689.67 1862.31 2700.92 1903.15 2645.79 1927.59C2641.68 1929.09 2643.29 1928.63 2638.34 1929.21C2632.72 1925.81 2631.24 1919.06 2629.31 1914.22C2676.84 1893.03 2668.66 1877.3 2668.22 1845.84L2609.82 1845.84L2609.82 1803.75Z"/><path fill="white" d="M1867.68 1803.75C1877.5 1803.75 1878.55 1802.85 1885.83 1805.19C1890.92 1810.51 1888.5 1819.68 1888.24 1826.5L1946.96 1826.44C1947.2 1863.35 1959.24 1901.52 1904.24 1927.58C1900.23 1928.9 1901.15 1928.57 1896.53 1929.26C1890.73 1925.99 1889.28 1919.02 1887.36 1914.17C1934.09 1895.05 1926.88 1874.97 1926.56 1845.84L1867.68 1845.84L1867.68 1803.75Z"/><path fill="white" d="M2105.31 1826.5L2194.9 1826.5C2195.25 1857.62 2206.28 1904.62 2163.62 1926.58C2160.7 1927.55 2158.96 1927.9 2155.85 1928.65C2149.71 1925.93 2148.36 1917.33 2146.73 1912.47C2150.67 1910.69 2154.44 1908.8 2158.02 1906.79C2180.14 1894.18 2174.31 1863.65 2173.93 1845.84L2105.31 1845.84L2105.31 1826.5Z"/><path fill="white" d="M2471.96 1827.34C2480.67 1826.72 2486.43 1826.17 2494.85 1827.54C2508.83 1829.83 2517.34 1848.72 2517.06 1855.91C2516.56 1868.86 2523.1 1918.01 2515.87 1927.68C2508.3 1928.11 2507.28 1928.63 2500.22 1927.52C2496.75 1921.79 2498.17 1912.94 2498.39 1906.57L2489.44 1916.04C2481.38 1923.32 2475.64 1927.12 2465.87 1933.69L2465.87 1908.89C2479.97 1900.72 2487.91 1894.05 2498.03 1884.36C2498.25 1874.08 2501.54 1853.73 2486.02 1847.37C2480.31 1847.33 2476.35 1847.73 2471.78 1845.93C2468.79 1841.68 2469.71 1831.94 2471.96 1827.34Z"/><path fill="white" d="M2289.45 1826.5C2309.66 1826.28 2342.01 1824.11 2356.23 1832.77C2385.11 1850.34 2377.28 1904.05 2377.08 1928.25C2369.67 1928.33 2366.5 1928.21 2359.07 1927.81C2347.09 1918.04 2368 1863.59 2346.01 1850.88C2333.2 1843.49 2307.43 1845.39 2289.45 1845.57L2289.45 1826.5Z"/><path fill="white" d="M941.234 1826.48C960.835 1826.31 993.332 1824.36 1007.36 1832.24C1037.29 1849.04 1028.98 1904.32 1028.78 1928.25C1021.25 1928.36 1016.96 1928.72 1009.69 1927.45C1005.25 1919.58 1009.46 1892.2 1008.75 1882.11C1006.15 1845.2 1000.93 1845.07 941.234 1845.57L941.234 1826.48Z"/><path fill="white" d="M1437.32 1826.5C1456.74 1826.31 1489.79 1824.39 1503.58 1832.31C1533.23 1849.34 1525.04 1904.35 1524.84 1928.25C1516.99 1928.35 1515.13 1928.28 1507.33 1927.71C1495.53 1919.09 1517.15 1861.29 1492.04 1849.85C1478.39 1843.63 1453.49 1845.43 1437.32 1845.57L1437.32 1826.5Z"/><path fill="white" d="M3086.4 1827.04C3089.53 1826.82 3092.65 1826.65 3095.8 1826.57C3103.81 1826.39 3109.86 1827.19 3115.74 1830.49C3139.86 1844.01 3131.27 1907.45 3131.07 1928.25L3097.6 1928.25C3091.08 1928.36 3093.32 1928.58 3087.1 1927.54C3082.94 1922.75 3084.9 1915.02 3085.11 1909.09L3109.92 1909.04C3110.02 1896.05 3115.59 1854.64 3100.34 1847.05C3093.99 1846.37 3093.04 1846.61 3087.92 1844.56C3083.93 1839.55 3085.85 1832.83 3086.4 1827.04Z"/><path fill="white" d="M2803.1 1824.72C2872.1 1824.47 2857.2 1875.68 2858.7 1901.54C2859.18 1909.89 2860.45 1918.89 2858.3 1927.11C2853.49 1928.69 2844.97 1928.16 2838.51 1928.21C2838.51 1905.96 2841.34 1882.49 2835.98 1860.56C2830.09 1836.41 2796 1847.74 2782.05 1846.03C2775.35 1833.19 2779.67 1827.72 2803.1 1824.72Z"/><path fill="white" d="M3030.33 1826.5C3038.75 1826.34 3042.35 1825.95 3050.38 1827.55C3055.06 1837.63 3051.51 1912.37 3051.45 1928.26C3041.94 1928.43 3040.51 1928.58 3031.45 1927.36C3026.72 1917.24 3030.26 1842.36 3030.33 1826.5Z"/><path fill="white" d="M1562.38 1826.5C1570.1 1826.39 1575.74 1825.81 1582.49 1827.76C1584.42 1833.45 1583.61 1854.3 1583.59 1861.1L1583.36 1928.27C1574.48 1928.37 1572.94 1928.37 1564.24 1927.61C1560.65 1923.51 1562.33 1838.09 1562.38 1826.5Z"/><path fill="white" d="M2555.42 1826.5C2565.54 1826.58 2567.88 1825.65 2575.35 1828.09C2577.42 1836.47 2576.48 1854.82 2576.45 1863.96L2576.19 1928.25C2568.22 1928.37 2563.77 1928.8 2556.3 1927.17C2554.39 1917.14 2555.22 1901.06 2555.24 1890.44L2555.42 1826.5Z"/><path fill="white" d="M2726.5 1826.5C2734.72 1826.36 2738.05 1826.03 2746.05 1827.38C2747.99 1836.75 2747.13 1853.59 2747.12 1863.65L2746.98 1928.25C2738.19 1928.39 2736.23 1928.55 2727.79 1927.53C2725.16 1919.78 2726.23 1900.13 2726.26 1891.39L2726.5 1826.5Z"/><path fill="white" d="M2106.51 1871.69C2115.4 1871.54 2116.97 1871.5 2125.61 1872.42C2128.61 1878.69 2127.05 1949.45 2126.99 1960.22L2106.51 1960.15L2106.51 1871.69Z"/><path fill="white" d="M1437.32 1873.08C1444.92 1872.99 1450.53 1872.53 1457.54 1874.1C1460.07 1884.02 1458.56 1916.64 1458.45 1928.25C1448.98 1928.42 1447.29 1928.52 1438.17 1927.47C1435.71 1916.72 1437.23 1885.37 1437.32 1873.08Z"/><path fill="white" d="M941.234 1873.08C950.402 1872.93 952.403 1872.88 961.316 1873.77C963.836 1884.17 962.376 1916.2 962.304 1928.25C953.016 1928.43 951.078 1928.65 942.253 1927.43C939.734 1916.81 941.173 1885.28 941.234 1873.08Z"/><path fill="white" d="M694.612 1826.48C703.8 1826.33 706.089 1826.22 714.985 1827.13C717.467 1838.57 716.081 1867.54 716.033 1880.28C708.659 1880.32 701.818 1880.85 695.379 1879.1C692.892 1868.49 694.471 1838.52 694.612 1826.48Z"/><path fill="white" d="M2412.74 1826.49C2421.55 1826.35 2424.9 1825.99 2433.19 1827.34C2435.55 1837.88 2434.16 1868.3 2434.11 1880.3C2426.7 1880.33 2420.07 1880.84 2413.51 1879.13C2411.03 1868.36 2412.6 1838.67 2412.74 1826.49Z"/><path fill="white" d="M2289.45 1873.08C2297.57 1872.94 2300.92 1872.68 2308.99 1873.72C2311.58 1885.56 2310.14 1915.1 2310.08 1928.25C2301.24 1928.39 2298.95 1928.56 2290.45 1927.56C2287.92 1916.82 2289.38 1885.39 2289.45 1873.08Z"/><path fill="white" d="M1814.96 1826.41L1836.07 1826.48L1836.07 1880.31C1829.39 1880.3 1821.34 1880.79 1815.73 1879.17C1813.25 1868.27 1814.82 1838.69 1814.96 1826.41Z"/><path fill="white" d="M494.026 1826.5C500.786 1826.49 509.098 1825.82 513.957 1827.92C516.456 1838.9 514.922 1867.94 514.793 1880.26C507.99 1880.3 500.688 1880.82 494.834 1879.21C492.446 1867.19 493.927 1839.68 494.026 1826.5Z"/></svg>